<?xml version="1.0" encoding="utf-8"?>
<!-- Generator: Adobe Illustrator 27.5.0, SVG Export Plug-In . SVG Version: 6.00 Build 0)  -->
<svg version="1.1" xmlns="http://www.w3.org/2000/svg" xmlns:xlink="http://www.w3.org/1999/xlink" x="0px" y="0px"
	 viewBox="0 0 3710 3710" style="enable-background:new 0 0 3710 3710;" xml:space="preserve">
<g id="Background">
	<g>
		<g>
			<rect style="fill:#FFFFFF;" width="3710" height="3710"/>
		</g>
	</g>
</g>
<g id="Illustration">
	<g>
		<linearGradient id="SVGID_1_" gradientUnits="userSpaceOnUse" x1="3588.7209" y1="4063.5381" x2="1115.3679" y2="991.7889">
			<stop  offset="0" style="stop-color:#DAE3FE"/>
			<stop  offset="1" style="stop-color:#E9EFFD"/>
		</linearGradient>
		<path style="fill:url(#SVGID_1_);" d="M2913.643,2848.437c-57.105,59.606-111.138,98.046-153.829,128.416
			c-501.816,356.994-1095.597,252.932-1221.792,227.519c-186.351-37.527-546.563-110.065-806.989-413.715
			c-394.004-459.397-332.652-1183.164-27.036-1660.933c55.902-87.392,351.193-572.438,951.369-650.224
			c363.22-47.075,786.619,47.87,1093.232,302.565C3392.207,1316.692,3346.389,2396.733,2913.643,2848.437z"/>
		<g>
			<g>
				<path style="fill:#91B3FA;" d="M976.995,1999.79c0,0-129.956-280.095-32.577-412.602
					c97.378-132.506,324.617-287.779,156.969-698.222c-98.148-240.292-137.552-346.879-153.354-393.957
					c-6.164-18.364-28.106-25.8-44.128-14.914c-113.335,77.011-472.725,347.361-437.627,657.72
					C507.886,1505.749,976.995,1999.79,976.995,1999.79z"/>
				<path style="fill:#FFFFFF;" d="M857.653,634.739c-82.899,179.871-146.474,462.009-136.867,712.286
					c4.627,39.922,5.906,128.547,50.282,267.68c36.204,116.39,93.362,231.15,141.945,302.437c3.072,4.507,9.215,5.67,13.721,2.599
					c7.75-5.28,2.671-13.877,2.719-13.557c-74.649-125.432-139.604-293.727-165.923-459.635
					c-30.398-204.551,2.307-429.942,50.522-630.021l5.253-19.922c38.857-151.564,57.049-160.477,45.374-164.779
					C861.922,630.81,858.869,632.12,857.653,634.739z"/>
			</g>
			<g>
				<path style="fill:#BDD0FB;" d="M1084.534,2097.148c-16.048,15.574,3.5-323.192-62.312-738.271
					c-31.013-195.596-7.903-406.332,68.832-530.609c63.864-103.431,379.285-153.869,483.302-167.879
					c12.998-1.751,22.17,12.403,15.229,23.531c-34.219,54.861-104.596,180.9-100.257,283.438
					c5.718,135.152-86.436,252.282-184.952,307.918c-98.516,55.636-150.444,95.419-146.951,280.778
					C1160.919,1741.414,1130.132,2052.895,1084.534,2097.148z"/>
				<path style="fill:#FFFFFF;" d="M1453.3,757.664c-123.559,46.001-239.431,146.889-272.794,276.276l-3.113,12.323
					c-7.072,28.822-35.908,226.738-36.75,383.297c-0.01,1.951,1.564,3.542,3.515,3.553c3.315,0.017,3.742-3.764,3.552-3.38
					c6.646-90.452,20.567-206.918,33.255-294.754c13.144-95.618,22.95-160.668,96.795-243.945
					c82.821-90.757,177.947-128.275,177.675-128.12c1.432-0.633,2.08-2.308,1.447-3.74
					C1456.273,757.798,1454.693,757.149,1453.3,757.664z"/>
			</g>
		</g>
		<g>
			
				<linearGradient id="SVGID_00000163783830126855310860000004258742849414680968_" gradientUnits="userSpaceOnUse" x1="1278.1083" y1="2249.5469" x2="3690.2751" y2="652.8837">
				<stop  offset="0" style="stop-color:#09005D"/>
				<stop  offset="1" style="stop-color:#1A0F91"/>
			</linearGradient>
			<path style="fill:url(#SVGID_00000163783830126855310860000004258742849414680968_);" d="M597.905,2601.381
				c0,24.909,20.4,45.29,45.333,45.29h2451.451c24.933,0,45.334-20.38,45.334-45.29l20.398-1408.781
				c0-24.909-29.347-73.539-83.132-69.885l-2395.829-61.992c-31.284-0.809-61.532,11.231-83.686,33.313
				c-22.154,22.082-34.275,52.272-33.536,83.528L597.905,2601.381z"/>
			<path style="fill:#7D97F4;" d="M642.661,2557.931c0,23.588,19.3,42.888,42.888,42.888h2350.022
				c23.589,0,42.889-19.3,42.889-42.888l19.249-1278.904c-2.267-76.962-69.741-104.622-110.642-102.989l-2296.184-61.603
				c-21.978-0.59-43.228,7.878-58.795,23.405s-24.128,36.776-23.577,58.755L642.661,2557.931z"/>
			
				<linearGradient id="SVGID_00000004538792711669872550000014312714165784944782_" gradientUnits="userSpaceOnUse" x1="1863.2133" y1="1707.0355" x2="1863.2133" y2="2305.2">
				<stop  offset="0" style="stop-color:#09005D"/>
				<stop  offset="1" style="stop-color:#1A0F91"/>
			</linearGradient>
			<path style="fill:url(#SVGID_00000004538792711669872550000014312714165784944782_);" d="M477.08,2763.617h2772.266
				c3.11,0,5.654-2.544,5.654-5.654V2645.49c0-3.109-2.544-5.654-5.654-5.654H477.08c-3.11,0-5.654,2.544-5.654,5.654v112.473
				C471.426,2761.073,473.97,2763.617,477.08,2763.617z"/>
			<g>
				<path style="opacity:0.53;fill:#BDD0FB;" d="M1416.604,1309.017l-623.474-4.367c-4.574-0.032-8.255-3.766-8.223-8.339
					l0.279-39.875c0.032-4.573,3.766-8.255,8.339-8.223l623.474,4.367c4.573,0.032,8.255,3.766,8.223,8.339l-0.279,39.875
					C1424.911,1305.368,1421.178,1309.049,1416.604,1309.017z"/>
				<path style="opacity:0.53;fill:#BDD0FB;" d="M1817.57,1313.052l-208.687-1.461c-4.388-0.031-7.921-3.613-7.89-8.001
					l0.284-40.546c0.031-4.388,3.613-7.921,8.001-7.89l208.686,1.461c4.388,0.031,7.921,3.613,7.89,8.002l-0.284,40.546
					C1825.541,1309.551,1821.958,1313.083,1817.57,1313.052z"/>
				<path style="opacity:0.53;fill:#BDD0FB;" d="M2302.699,1316.45l-418.272-2.929c-6.976-0.049-12.592-5.744-12.543-12.72
					l0.218-31.174c0.049-6.976,5.744-12.592,12.72-12.543l418.272,2.929c6.976,0.049,12.592,5.744,12.543,12.72l-0.218,31.174
					C2315.37,1310.883,2309.675,1316.499,2302.699,1316.45z"/>
				<path style="opacity:0.53;fill:#BDD0FB;" d="M942.133,1404.886l-146.312-1.025c-6.976-0.049-12.592-5.744-12.543-12.72
					l0.218-31.174c0.049-6.976,5.744-12.592,12.72-12.543l146.312,1.025c6.976,0.049,12.592,5.744,12.543,12.72l-0.218,31.174
					C954.804,1399.319,949.109,1404.935,942.133,1404.886z"/>
				<path style="opacity:0.53;fill:#BDD0FB;" d="M1417.176,1408.314l-448.906-3.144c-4.574-0.032-8.255-3.766-8.223-8.339
					l0.279-39.875c0.032-4.573,3.766-8.255,8.339-8.223l448.906,3.144c4.573,0.032,8.255,3.766,8.223,8.339l-0.279,39.875
					C1425.483,1404.665,1421.749,1408.346,1417.176,1408.314z"/>
				<path style="opacity:0.53;fill:#BDD0FB;" d="M1818.679,1412.352l-208.686-1.462c-4.388-0.031-7.921-3.613-7.89-8.001
					l0.284-40.546c0.031-4.388,3.613-7.921,8.001-7.89l208.687,1.462c4.388,0.031,7.921,3.613,7.89,8.001l-0.284,40.546
					C1826.65,1408.851,1823.068,1412.383,1818.679,1412.352z"/>
				<path style="opacity:0.53;fill:#BDD0FB;" d="M2665.128,1418.28l-624.489-4.374c-6.976-0.049-12.592-5.744-12.543-12.72
					l0.218-31.174c0.049-6.976,5.744-12.592,12.72-12.543l624.489,4.374c6.976,0.049,12.592,5.744,12.543,12.72l-0.219,31.174
					C2677.8,1412.714,2672.104,1418.329,2665.128,1418.28z"/>
				<path style="opacity:0.53;fill:#BDD0FB;" d="M941.313,1504.028l-146.312-1.025c-6.976-0.049-12.592-5.744-12.543-12.72
					l0.218-31.174c0.049-6.976,5.744-12.592,12.72-12.543l146.312,1.025c6.976,0.049,12.592,5.744,12.543,12.72l-0.218,31.174
					C953.984,1498.461,948.289,1504.077,941.313,1504.028z"/>
				<path style="opacity:0.53;fill:#BDD0FB;" d="M1416.259,1507.456l-448.906-3.144c-4.573-0.032-8.255-3.766-8.223-8.339
					l0.279-39.875c0.032-4.573,3.766-8.255,8.339-8.223l448.906,3.144c4.573,0.032,8.255,3.766,8.223,8.339l-0.279,39.876
					C1424.566,1503.807,1420.832,1507.488,1416.259,1507.456z"/>
				<path style="opacity:0.53;fill:#BDD0FB;" d="M1817.821,1511.494l-208.686-1.462c-4.388-0.031-7.921-3.613-7.89-8.001
					l0.284-40.546c0.031-4.388,3.613-7.921,8.001-7.89l208.686,1.461c4.388,0.031,7.921,3.613,7.89,8.001l-0.284,40.546
					C1825.791,1507.993,1822.209,1511.525,1817.821,1511.494z"/>
				<path style="opacity:0.53;fill:#BDD0FB;" d="M2940.864,1519.359l-821.408-5.753c-6.976-0.049-12.592-5.744-12.543-12.72
					l0.218-31.174c0.049-6.976,5.744-12.592,12.72-12.543l821.408,5.753c6.976,0.049,12.592,5.744,12.543,12.72l-0.218,31.174
					C2953.535,1513.792,2947.84,1519.408,2940.864,1519.359z"/>
				<path style="opacity:0.53;fill:#BDD0FB;" d="M941.997,1603.325l-146.312-1.025c-6.976-0.049-12.592-5.744-12.543-12.72
					l0.218-31.174c0.049-6.976,5.744-12.592,12.72-12.543l146.312,1.025c6.976,0.049,12.592,5.744,12.543,12.72l-0.218,31.174
					C954.668,1597.759,948.973,1603.374,941.997,1603.325z"/>
				<path style="opacity:0.53;fill:#BDD0FB;" d="M1418.01,1606.761l-448.906-3.144c-4.573-0.032-8.255-3.766-8.223-8.339
					l0.279-39.875c0.032-4.573,3.766-8.255,8.339-8.223l448.906,3.144c4.574,0.032,8.255,3.766,8.223,8.339l-0.279,39.875
					C1426.317,1603.112,1422.583,1606.793,1418.01,1606.761z"/>
				<path style="opacity:0.53;fill:#BDD0FB;" d="M1818.93,1610.794l-208.687-1.462c-4.388-0.031-7.921-3.613-7.89-8.001
					l0.284-40.546c0.031-4.388,3.613-7.921,8.001-7.89l208.686,1.462c4.388,0.031,7.921,3.613,7.89,8.001l-0.284,40.546
					C1826.901,1607.293,1823.318,1610.825,1818.93,1610.794z"/>
				<path style="opacity:0.53;fill:#BDD0FB;" d="M2944.619,1618.678l-821.408-5.753c-6.976-0.049-12.592-5.744-12.543-12.72
					l0.218-31.174c0.049-6.976,5.744-12.592,12.72-12.543l821.408,5.753c6.976,0.049,12.592,5.744,12.543,12.72l-0.218,31.174
					C2957.291,1613.111,2951.596,1618.727,2944.619,1618.678z"/>
				<path style="opacity:0.53;fill:#BDD0FB;" d="M940.755,1706.346l-146.312-1.025c-6.976-0.049-12.592-5.744-12.543-12.72
					l0.218-31.174c0.049-6.976,5.744-12.592,12.72-12.543l146.312,1.025c6.976,0.049,12.592,5.744,12.543,12.72l-0.218,31.174
					C953.426,1700.779,947.731,1706.395,940.755,1706.346z"/>
				<path style="opacity:0.53;fill:#BDD0FB;" d="M1416.365,1709.779l-448.906-3.144c-4.573-0.032-8.255-3.766-8.223-8.339
					l0.279-39.876c0.032-4.573,3.766-8.255,8.339-8.223l448.906,3.144c4.573,0.032,8.255,3.766,8.223,8.339l-0.279,39.875
					C1424.672,1706.13,1420.938,1709.811,1416.365,1709.779z"/>
				<path style="opacity:0.53;fill:#BDD0FB;" d="M1817.527,1713.814l-208.687-1.462c-4.388-0.031-7.921-3.613-7.89-8.001
					l0.284-40.546c0.031-4.388,3.613-7.921,8.001-7.89l208.686,1.462c4.388,0.031,7.921,3.613,7.89,8.001l-0.284,40.546
					C1825.498,1710.312,1821.916,1713.844,1817.527,1713.814z"/>
				<path style="opacity:0.53;fill:#BDD0FB;" d="M2942.218,1721.69l-821.408-5.753c-6.976-0.049-12.592-5.744-12.543-12.72
					l0.218-31.174c0.049-6.976,5.744-12.592,12.72-12.543l821.408,5.753c6.976,0.049,12.592,5.744,12.543,12.72l-0.219,31.174
					C2954.889,1716.123,2949.194,1721.739,2942.218,1721.69z"/>
				<path style="opacity:0.53;fill:#BDD0FB;" d="M941.438,1805.643l-146.312-1.025c-6.976-0.049-12.592-5.744-12.543-12.72
					l0.218-31.174c0.049-6.976,5.744-12.592,12.72-12.543l146.312,1.025c6.976,0.049,12.592,5.744,12.543,12.72l-0.218,31.174
					C954.109,1800.076,948.414,1805.692,941.438,1805.643z"/>
				<path style="opacity:0.53;fill:#BDD0FB;" d="M1418.116,1809.084l-448.906-3.144c-4.573-0.032-8.255-3.766-8.223-8.339
					l0.279-39.875c0.032-4.574,3.765-8.255,8.339-8.223l448.906,3.144c4.573,0.032,8.255,3.766,8.223,8.339l-0.279,39.875
					C1426.423,1805.435,1422.69,1809.116,1418.116,1809.084z"/>
				<path style="opacity:0.53;fill:#BDD0FB;" d="M1818.637,1813.114l-208.686-1.461c-4.388-0.031-7.921-3.613-7.89-8.001
					l0.284-40.546c0.031-4.388,3.613-7.921,8.001-7.89l208.687,1.462c4.388,0.031,7.921,3.613,7.89,8.001l-0.284,40.546
					C1826.608,1809.612,1823.025,1813.145,1818.637,1813.114z"/>
				<path style="opacity:0.53;fill:#BDD0FB;" d="M2374.393,1817.006l-493.467-3.456c-6.976-0.049-12.592-5.744-12.543-12.72
					l0.218-31.174c0.049-6.976,5.744-12.592,12.72-12.543l493.467,3.456c6.976,0.049,12.592,5.744,12.543,12.72l-0.218,31.174
					C2387.064,1811.439,2381.369,1817.055,2374.393,1817.006z"/>
				<path style="opacity:0.53;fill:#BDD0FB;" d="M1417.542,1908.229l-626.961-4.391c-4.573-0.032-8.255-3.766-8.223-8.339
					l0.279-39.875c0.032-4.573,3.765-8.255,8.339-8.223l626.961,4.391c4.573,0.032,8.255,3.766,8.223,8.339l-0.279,39.875
					C1425.849,1904.579,1422.116,1908.261,1417.542,1908.229z"/>
				<path style="opacity:0.53;fill:#BDD0FB;" d="M1817.778,1912.256l-208.686-1.462c-4.388-0.031-7.921-3.613-7.89-8.001
					l0.284-40.546c0.031-4.388,3.613-7.921,8.001-7.89l208.687,1.462c4.388,0.031,7.921,3.613,7.89,8.001l-0.284,40.546
					C1825.749,1908.754,1822.167,1912.286,1817.778,1912.256z"/>
				<path style="opacity:0.53;fill:#BDD0FB;" d="M2618.59,1917.864l-621.452-4.352c-6.976-0.049-12.592-5.744-12.543-12.72
					l0.218-31.174c0.049-6.976,5.744-12.592,12.72-12.543l621.452,4.352c6.976,0.049,12.592,5.744,12.543,12.72l-0.218,31.174
					C2631.261,1912.297,2625.566,1917.913,2618.59,1917.864z"/>
				<path style="opacity:0.53;fill:#BDD0FB;" d="M934.844,2004.037l-139.453-0.977c-6.976-0.049-12.592-5.744-12.543-12.72
					l0.218-31.174c0.049-6.976,5.744-12.592,12.72-12.543l139.453,0.977c6.976,0.049,12.592,5.744,12.543,12.72l-0.218,31.174
					C947.515,1998.47,941.82,2004.086,934.844,2004.037z"/>
				<path style="opacity:0.53;fill:#BDD0FB;" d="M1418.951,2007.531l-448.906-3.144c-4.573-0.032-8.255-3.766-8.223-8.339
					l0.279-39.875c0.032-4.573,3.766-8.255,8.339-8.223l448.906,3.144c4.574,0.032,8.255,3.766,8.223,8.339l-0.279,39.875
					C1427.258,2003.882,1423.524,2007.563,1418.951,2007.531z"/>
				<path style="opacity:0.53;fill:#BDD0FB;" d="M1818.888,2011.556l-208.687-1.461c-4.388-0.031-7.921-3.613-7.89-8.001
					l0.284-40.546c0.031-4.388,3.613-7.921,8.001-7.89l208.686,1.462c4.388,0.031,7.921,3.613,7.89,8.001l-0.284,40.546
					C1826.858,2008.054,1823.276,2011.587,1818.888,2011.556z"/>
				<path style="opacity:0.53;fill:#BDD0FB;" d="M2945.716,2019.447l-850.166-5.954c-6.976-0.049-12.592-5.744-12.543-12.72
					l0.218-31.174c0.049-6.976,5.744-12.592,12.72-12.543l850.166,5.954c6.976,0.049,12.592,5.744,12.543,12.72l-0.219,31.174
					C2958.387,2013.88,2952.692,2019.496,2945.716,2019.447z"/>
				<path style="opacity:0.53;fill:#BDD0FB;" d="M935.669,2300.348l-146.312-1.025c-6.976-0.049-12.592-5.744-12.543-12.72
					l0.218-31.174c0.049-6.976,5.744-12.592,12.72-12.543l146.312,1.025c6.976,0.049,12.592,5.744,12.543,12.72l-0.218,31.174
					C948.34,2294.781,942.645,2300.397,935.669,2300.348z"/>
				<path style="opacity:0.53;fill:#BDD0FB;" d="M1412.572,2303.794l-448.906-3.144c-4.574-0.032-8.255-3.765-8.223-8.339
					l0.279-39.875c0.032-4.573,3.766-8.255,8.339-8.223l448.906,3.144c4.573,0.032,8.255,3.766,8.223,8.339l-0.279,39.875
					C1420.879,2300.144,1417.146,2303.826,1412.572,2303.794z"/>
				<path style="opacity:0.53;fill:#BDD0FB;" d="M1812.868,2307.819l-208.686-1.461c-4.388-0.031-7.921-3.613-7.89-8.001
					l0.284-40.546c0.031-4.388,3.613-7.921,8.001-7.89l208.686,1.461c4.388,0.031,7.921,3.613,7.89,8.001l-0.284,40.546
					C1820.838,2304.317,1817.256,2307.85,1812.868,2307.819z"/>
				<path style="opacity:0.53;fill:#BDD0FB;" d="M2368.623,2311.711l-493.467-3.456c-6.976-0.049-12.592-5.744-12.543-12.72
					l0.218-31.174c0.049-6.976,5.744-12.592,12.72-12.543l493.467,3.456c6.976,0.049,12.592,5.744,12.543,12.72l-0.218,31.174
					C2381.294,2306.145,2375.599,2311.76,2368.623,2311.711z"/>
				<path style="opacity:0.53;fill:#BDD0FB;" d="M1411.998,2402.938l-626.961-4.391c-4.574-0.032-8.255-3.765-8.223-8.339
					l0.279-39.875c0.032-4.573,3.766-8.255,8.339-8.223l626.961,4.391c4.573,0.032,8.255,3.766,8.223,8.339l-0.279,39.875
					C1420.305,2399.289,1416.572,2402.97,1411.998,2402.938z"/>
				<path style="opacity:0.53;fill:#BDD0FB;" d="M1812.009,2406.961l-208.687-1.462c-4.388-0.031-7.921-3.613-7.89-8.001
					l0.284-40.546c0.031-4.388,3.613-7.921,8.001-7.89l208.686,1.461c4.388,0.031,7.921,3.613,7.89,8.001l-0.284,40.546
					C1819.98,2403.459,1816.397,2406.992,1812.009,2406.961z"/>
				<path style="opacity:0.53;fill:#BDD0FB;" d="M2612.473,2412.567l-621.452-4.352c-6.976-0.049-12.592-5.744-12.543-12.72
					l0.218-31.174c0.049-6.976,5.744-12.592,12.72-12.543l621.452,4.352c6.976,0.049,12.592,5.744,12.543,12.72l-0.218,31.174
					C2625.144,2407,2619.449,2412.616,2612.473,2412.567z"/>
				<path style="opacity:0.53;fill:#BDD0FB;" d="M929.075,2498.742l-139.453-0.977c-6.976-0.049-12.592-5.744-12.543-12.72
					l0.218-31.174c0.049-6.976,5.744-12.592,12.72-12.543l139.453,0.977c6.976,0.049,12.592,5.744,12.543,12.72l-0.218,31.174
					C941.746,2493.176,936.051,2498.791,929.075,2498.742z"/>
				<path style="opacity:0.53;fill:#BDD0FB;" d="M1413.406,2502.241l-448.906-3.144c-4.573-0.032-8.255-3.766-8.223-8.339
					l0.279-39.875c0.032-4.573,3.766-8.255,8.339-8.223l448.906,3.144c4.573,0.032,8.255,3.766,8.223,8.339l-0.279,39.875
					C1421.714,2498.591,1417.98,2502.273,1413.406,2502.241z"/>
				<path style="opacity:0.53;fill:#BDD0FB;" d="M1813.119,2506.261l-208.686-1.461c-4.388-0.031-7.921-3.613-7.89-8.001
					l0.284-40.546c0.031-4.388,3.613-7.921,8.001-7.89l208.687,1.462c4.388,0.031,7.921,3.613,7.89,8.001l-0.284,40.546
					C1821.089,2502.76,1817.507,2506.292,1813.119,2506.261z"/>
				<path style="opacity:0.53;fill:#BDD0FB;" d="M2939.599,2514.15l-850.166-5.954c-6.976-0.049-12.592-5.744-12.543-12.72
					l0.218-31.174c0.049-6.976,5.744-12.592,12.72-12.543l850.166,5.954c6.976,0.049,12.592,5.744,12.543,12.72l-0.219,31.174
					C2952.27,2508.583,2946.575,2514.199,2939.599,2514.15z"/>
				<path style="opacity:0.53;fill:#BDD0FB;" d="M932.211,2105.003l-139.453-0.977c-6.976-0.049-12.592-5.744-12.543-12.72
					l0.218-31.174c0.049-6.976,5.744-12.592,12.72-12.543l139.453,0.977c6.976,0.049,12.592,5.744,12.543,12.72l-0.218,31.174
					C944.882,2099.436,939.187,2105.052,932.211,2105.003z"/>
				<path style="opacity:0.53;fill:#BDD0FB;" d="M1414.685,2108.486l-448.906-3.144c-4.573-0.032-8.255-3.766-8.223-8.339
					l0.279-39.875c0.032-4.573,3.766-8.255,8.339-8.223l448.906,3.144c4.573,0.032,8.255,3.766,8.223,8.339l-0.279,39.875
					C1422.992,2104.837,1419.258,2108.519,1414.685,2108.486z"/>
				<path style="opacity:0.53;fill:#BDD0FB;" d="M1815.556,2112.517l-208.687-1.461c-4.388-0.031-7.921-3.613-7.89-8.001
					l0.284-40.546c0.031-4.388,3.613-7.921,8.001-7.89l208.686,1.462c4.388,0.031,7.921,3.613,7.89,8.001l-0.284,40.546
					C1823.526,2109.015,1819.944,2112.548,1815.556,2112.517z"/>
				<path style="opacity:0.53;fill:#BDD0FB;" d="M2938.315,2120.38l-850.166-5.954c-6.976-0.049-12.592-5.744-12.543-12.72
					l0.218-31.174c0.049-6.976,5.744-12.592,12.72-12.543l850.166,5.954c6.976,0.049,12.592,5.744,12.543,12.72l-0.219,31.174
					C2950.987,2114.813,2945.292,2120.429,2938.315,2120.38z"/>
				<path style="opacity:0.53;fill:#BDD0FB;" d="M932.84,2204.3l-139.453-0.977c-6.976-0.049-12.592-5.744-12.543-12.72
					l0.218-31.174c0.049-6.976,5.744-12.592,12.72-12.543l139.453,0.977c6.976,0.049,12.592,5.744,12.543,12.72l-0.218,31.174
					C945.511,2198.733,939.816,2204.348,932.84,2204.3z"/>
				<path style="opacity:0.53;fill:#BDD0FB;" d="M1416.436,2207.792l-448.906-3.144c-4.574-0.032-8.255-3.766-8.223-8.339
					l0.279-39.875c0.032-4.573,3.766-8.255,8.339-8.223l448.906,3.144c4.573,0.032,8.255,3.765,8.223,8.339l-0.279,39.876
					C1424.743,2204.142,1421.01,2207.823,1416.436,2207.792z"/>
				<path style="opacity:0.53;fill:#BDD0FB;" d="M1816.665,2211.817l-208.686-1.461c-4.388-0.031-7.921-3.613-7.89-8.001
					l0.284-40.546c0.031-4.388,3.613-7.921,8.001-7.89l208.687,1.462c4.388,0.031,7.921,3.613,7.89,8.001l-0.284,40.546
					C1824.636,2208.315,1821.053,2211.848,1816.665,2211.817z"/>
				<path style="opacity:0.53;fill:#BDD0FB;" d="M2942.222,2219.7l-850.166-5.954c-6.976-0.049-12.592-5.744-12.543-12.72
					l0.218-31.174c0.049-6.976,5.744-12.592,12.72-12.543l850.167,5.954c6.976,0.049,12.592,5.744,12.543,12.72l-0.218,31.174
					C2954.893,2214.133,2949.198,2219.749,2942.222,2219.7z"/>
				<path style="opacity:0.53;fill:#BDD0FB;" d="M1513.919,2569.788l-11.443-0.08c-2.561-0.018-4.622-2.108-4.604-4.669
					l9.676-1381.556c0.018-2.561,2.108-4.622,4.669-4.604l11.443,0.08c2.561,0.018,4.622,2.109,4.604,4.669l-9.676,1381.556
					C1518.571,2567.745,1516.48,2569.806,1513.919,2569.788z"/>
			</g>
		</g>
		<g>
			
				<linearGradient id="SVGID_00000138573807223531247260000013568007018012942517_" gradientUnits="userSpaceOnUse" x1="2728.4373" y1="1665.8154" x2="2614.4949" y2="2456.7063">
				<stop  offset="0" style="stop-color:#FF928E"/>
				<stop  offset="1" style="stop-color:#FE7062"/>
			</linearGradient>
			
				<circle style="fill:url(#SVGID_00000138573807223531247260000013568007018012942517_);" cx="2682.602" cy="1983.964" r="241.277"/>
			<g>
				<path style="fill:#FFFFFF;" d="M2617.893,2036.317l-94.833-48.263v-15.543l94.833-54.913v26.455l-65.608,35.043l65.608,30.875
					V2036.317z"/>
				<path style="fill:#FFFFFF;" d="M2718.774,1896.175l-53.936,162.997l-27.093-0.276l53.508-162.35L2718.774,1896.175z"/>
				<path style="fill:#FFFFFF;" d="M2738.822,2010.338l69.308-31.631l-69.308-35.459v-26.926l101.075,55.393v16.277l-101.075,49.159
					V2010.338z"/>
			</g>
		</g>
		<g>
			
				<linearGradient id="SVGID_00000079468876753927531660000013076444615788299926_" gradientUnits="userSpaceOnUse" x1="1879.7563" y1="721.8387" x2="2362.3093" y2="721.8387">
				<stop  offset="0" style="stop-color:#4F52FF"/>
				<stop  offset="1" style="stop-color:#4042E2"/>
			</linearGradient>
			
				<circle style="fill:url(#SVGID_00000079468876753927531660000013076444615788299926_);" cx="2121.033" cy="721.839" r="241.277"/>
			<g>
				
					<linearGradient id="SVGID_00000096040330514164768110000017923549934115098270_" gradientUnits="userSpaceOnUse" x1="2004.8362" y1="713.2587" x2="2073.6543" y2="713.2587">
					<stop  offset="0" style="stop-color:#DAE3FE"/>
					<stop  offset="1" style="stop-color:#E9EFFD"/>
				</linearGradient>
				<path style="fill:url(#SVGID_00000096040330514164768110000017923549934115098270_);" d="M2024.144,818.176
					c-7.403-0.128-13.836-1.045-19.308-2.75v-28.349c5.612,1.53,10.744,2.323,15.392,2.377c7.201,0.084,12.367-2.194,15.486-6.839
					c3.123-4.651,4.685-11.957,4.685-21.915V609.114l33.255-0.784v152.346c0,19.006-4.208,33.431-12.602,43.251
					C2052.686,813.715,2040.364,818.456,2024.144,818.176z"/>
				
					<linearGradient id="SVGID_00000157994067788983796110000018127828494336460676_" gradientUnits="userSpaceOnUse" x1="2111.1563" y1="708.8457" x2="2235.875" y2="708.8457">
					<stop  offset="0" style="stop-color:#DAE3FE"/>
					<stop  offset="1" style="stop-color:#E9EFFD"/>
				</linearGradient>
				<path style="fill:url(#SVGID_00000157994067788983796110000018127828494336460676_);" d="M2235.875,752.336
					c0,17.689-6.358,31.562-19.028,41.582c-12.61,9.972-30.051,14.774-52.236,14.443c-20.271-0.303-38.073-4.422-53.454-12.314
					v-37.69c12.637,5.841,23.383,9.987,32.213,12.422c8.86,2.443,16.987,3.699,24.374,3.762c8.896,0.075,15.738-1.592,20.519-5.006
					c4.79-3.42,7.183-8.543,7.183-15.373c0-3.809-1.056-7.204-3.166-10.182c-2.108-2.976-5.202-5.837-9.277-8.582
					c-4.069-2.741-12.338-7.113-24.776-13.099c-11.602-5.517-20.268-10.804-26.026-15.861c-5.745-5.046-10.333-10.922-13.749-17.63
					c-3.413-6.699-5.122-14.539-5.122-23.526c0-16.936,5.616-30.346,16.875-40.271c11.308-9.969,27.028-15.199,47.221-15.662
					c9.981-0.229,19.538,0.749,28.666,2.941c9.159,2.199,18.77,5.381,28.846,9.541l-13.363,32.481
					c-10.376-4.12-18.926-6.969-25.667-8.545c-6.724-1.572-13.318-2.308-19.792-2.202c-7.672,0.126-13.544,2.026-17.628,5.704
					c-4.078,3.673-6.109,8.404-6.109,14.208c0,3.609,0.825,6.737,2.468,9.404c1.644,2.669,4.274,5.237,7.875,7.712
					c3.606,2.479,12.169,6.926,25.74,13.371c18.048,8.587,30.498,17.272,37.25,26.028
					C2232.479,728.77,2235.875,739.557,2235.875,752.336z"/>
			</g>
		</g>
		<g>
			
				<linearGradient id="SVGID_00000039848619291274521070000017622750691077222539_" gradientUnits="userSpaceOnUse" x1="2698.2524" y1="536.4241" x2="2530.6902" y2="1514.9855">
				<stop  offset="0" style="stop-color:#FF928E"/>
				<stop  offset="1" style="stop-color:#FE7062"/>
			</linearGradient>
			
				<circle style="fill:url(#SVGID_00000039848619291274521070000017622750691077222539_);" cx="2645.726" cy="843.177" r="238.763"/>
			<g>
				<path style="fill:#FFFFFF;" d="M2550.592,893.19l-17.442-0.965v-37.763l-32.427-1.602v37.571l-17.227-0.953v-86.813
					l17.227,0.717v34.117l32.427,1.523v-34.292l17.442,0.726V893.19z"/>
				<path style="fill:#FFFFFF;" d="M2609.738,896.462l-17.822-0.986v-72.718l-22.682-0.999v-15.527l63.473,2.641v15.681
					l-22.969-1.011V896.462z"/>
				<path style="fill:#FFFFFF;" d="M2688.127,900.799l-20.723-71.234l-0.529-0.024c0.743,14.292,1.115,23.822,1.115,28.588v41.555
					l-16.219-0.897v-89.121l24.741,1.03l20.426,69.475l0.356,0.018l21.807-67.721l25.257,1.051v90.39l-17.317-0.958V860.28
					c0-2.013,0.03-4.335,0.09-6.964c0.06-2.628,0.328-9.605,0.807-20.93l-0.538-0.024l-22.457,69.366L2688.127,900.799z"/>
				<path style="fill:#FFFFFF;" d="M2772.741,905.48v-90.779l18.84,0.784v75.097l36.337,1.923v16.028L2772.741,905.48z"/>
			</g>
		</g>
		<g>
			
				<linearGradient id="SVGID_00000084516035494536919050000011582787016030199209_" gradientUnits="userSpaceOnUse" x1="2597.4473" y1="1421.3883" x2="3051.1343" y2="1421.3883">
				<stop  offset="0" style="stop-color:#4F52FF"/>
				<stop  offset="1" style="stop-color:#4042E2"/>
			</linearGradient>
			
				<circle style="fill:url(#SVGID_00000084516035494536919050000011582787016030199209_);" cx="2824.291" cy="1421.388" r="226.844"/>
			<g>
				
					<linearGradient id="SVGID_00000049921627640063104430000006784497209355167620_" gradientUnits="userSpaceOnUse" x1="2671.0112" y1="1419.3252" x2="2758.6941" y2="1419.3252">
					<stop  offset="0" style="stop-color:#DAE3FE"/>
					<stop  offset="1" style="stop-color:#E9EFFD"/>
				</linearGradient>
				<path style="fill:url(#SVGID_00000049921627640063104430000006784497209355167620_);" d="M2724.358,1376.128
					c-9.228-0.093-16.326,3.658-21.324,11.23c-4.98,7.546-7.449,18.107-7.42,31.698c0.061,28.269,9.632,42.772,28.902,43.529
					c8.161,0.321,18.103-1.548,29.859-5.633l0.034,22.979c-9.666,3.971-20.39,5.67-32.148,5.118
					c-16.735-0.785-29.42-6.961-38.158-18.485c-8.691-11.459-13.042-27.536-13.092-48.291c-0.032-13.076,2.058-24.5,6.28-34.295
					c4.234-9.823,10.357-17.358,18.393-22.6c8.078-5.272,17.614-7.906,28.632-7.879c11.314,0.028,22.772,3.092,34.377,9.224
					l-8.065,22.248c-4.413-2.353-8.837-4.405-13.275-6.16C2732.927,1377.065,2728.596,1376.17,2724.358,1376.128z"/>
				
					<linearGradient id="SVGID_00000165936469484051740730000003618608309162841492_" gradientUnits="userSpaceOnUse" x1="2780.761" y1="1421.6238" x2="2861.311" y2="1421.6238">
					<stop  offset="0" style="stop-color:#DAE3FE"/>
					<stop  offset="1" style="stop-color:#E9EFFD"/>
				</linearGradient>
				<path style="fill:url(#SVGID_00000165936469484051740730000003618608309162841492_);" d="M2861.311,1452.576
					c0.003,12.087-4.109,21.438-12.306,28.028c-8.15,6.554-19.422,9.479-33.744,8.808c-13.077-0.613-24.555-3.774-34.469-9.46
					l-0.031-25.68c8.148,4.226,15.079,7.262,20.773,9.094c5.714,1.839,10.96,2.855,15.73,3.043
					c5.745,0.226,10.165-0.777,13.251-3.014c3.092-2.241,4.64-5.693,4.637-10.355c-0.001-2.602-0.686-4.941-2.05-7.014
					c-1.365-2.07-3.365-4.083-6.001-6.038c-2.63-1.95-7.976-5.092-16.01-9.412c-7.49-3.984-13.085-7.751-16.804-11.313
					c-3.712-3.551-6.671-7.646-8.881-12.285c-2.207-4.631-3.313-10.012-3.32-16.148c-0.014-11.559,3.595-20.619,10.854-27.201
					c7.294-6.615,17.441-9.92,30.497-9.887c6.455,0.016,12.64,0.85,18.55,2.508c5.933,1.664,12.161,4.008,18.69,7.034l-8.651,21.996
					c-6.72-3.005-12.256-5.103-16.618-6.304c-4.351-1.196-8.618-1.815-12.802-1.858c-4.961-0.05-8.756,1.147-11.389,3.586
					c-2.631,2.436-3.941,5.633-3.937,9.598c0.002,2.464,0.534,4.619,1.598,6.469c1.065,1.852,2.761,3.655,5.092,5.411
					c2.331,1.759,7.867,4.957,16.641,9.608c11.678,6.202,19.735,12.371,24.11,18.485
					C2859.108,1436.407,2861.309,1443.845,2861.311,1452.576z"/>
				
					<linearGradient id="SVGID_00000002367943397452658100000015261039569746821005_" gradientUnits="userSpaceOnUse" x1="2885.573" y1="1424.2754" x2="2971.9016" y2="1424.2754">
					<stop  offset="0" style="stop-color:#DAE3FE"/>
					<stop  offset="1" style="stop-color:#E9EFFD"/>
				</linearGradient>
				<path style="fill:url(#SVGID_00000002367943397452658100000015261039569746821005_);" d="M2971.902,1456.371
					c-0.012,12.518-4.436,22.195-13.235,29.007c-8.748,6.773-20.835,9.782-36.184,9.062c-14.01-0.657-26.3-3.947-36.909-9.847
					l0-26.57c8.72,4.384,16.139,7.534,22.236,9.439c6.119,1.912,11.738,2.971,16.85,3.172c6.157,0.242,10.895-0.79,14.206-3.101
					c3.318-2.316,4.981-5.888,4.985-10.714c0.002-2.694-0.729-5.116-2.189-7.264c-1.46-2.145-3.602-4.231-6.425-6.258
					c-2.817-2.022-8.542-5.28-17.146-9.76c-8.02-4.131-14.009-8.035-17.988-11.724c-3.971-3.678-7.134-7.917-9.495-12.72
					c-2.358-4.794-3.535-10.362-3.535-16.712c0-11.96,3.876-21.335,11.659-28.145c7.821-6.845,18.697-10.264,32.688-10.23
					c6.919,0.017,13.549,0.882,19.883,2.599c6.36,1.724,13.036,4.152,20.036,7.287l-9.307,22.777
					c-7.203-3.115-13.136-5.29-17.812-6.535c-4.663-1.24-9.237-1.883-13.72-1.928c-5.317-0.054-9.385,1.184-12.21,3.707
					c-2.822,2.52-4.23,5.829-4.231,9.933c-0.001,2.55,0.566,4.781,1.704,6.696c1.139,1.918,2.954,3.784,5.448,5.604
					c2.496,1.823,8.424,5.136,17.823,9.959c12.512,6.431,21.144,12.826,25.829,19.162
					C2969.56,1439.623,2971.91,1447.329,2971.902,1456.371z"/>
			</g>
		</g>
		<g>
			
				<linearGradient id="SVGID_00000065054669056380341560000005688203010111210640_" gradientUnits="userSpaceOnUse" x1="1431.6017" y1="1616.5239" x2="1873.9426" y2="691.6309">
				<stop  offset="0" style="stop-color:#E1473D"/>
				<stop  offset="1" style="stop-color:#E9605A"/>
			</linearGradient>
			<path style="fill:url(#SVGID_00000065054669056380341560000005688203010111210640_);" d="M1032.23,2634.22
				c-6.921,7.05-5.09,18.783,3.57,23.54c39.781,21.851,139.814,61.519,224.135-31.642
				c107.973-119.294,370.967-675.915,403.408-818.842c32.441-142.927,155.084-363.126,222.466-389.107
				c67.383-25.979-142.842-11.211-201.368-10.216c-58.525,0.996-100.695-28.001-65.882-41.332c0,0-178.013-69.467-311.515,137.214
				c-80.686,124.913-340.434,702.091-555.755,765.426c-7.967,2.344,37.217,33.011,40.717,40.542
				c20.749,44.644,96.946,176.592,296.677,245.679C1088.683,2555.483,1062.759,2603.127,1032.23,2634.22z"/>
			
				<linearGradient id="SVGID_00000101081547566717945290000014137399583462927773_" gradientUnits="userSpaceOnUse" x1="935.404" y1="3156.7852" x2="1187.6219" y2="3156.7852" gradientTransform="matrix(1 0 0 1 646.4113 0)">
				<stop  offset="0" style="stop-color:#4F52FF"/>
				<stop  offset="1" style="stop-color:#4042E2"/>
			</linearGradient>
			<path style="fill:url(#SVGID_00000101081547566717945290000014137399583462927773_);" d="M1826.911,3144.586
				c-43.208,3.735-118.197,9.802-177.315,12.404c-35.538,1.564-55.997-1.916-67.78-6.633c0.02,1.328,0.057,2.584,0.11,3.75
				c0.279,6.221,5.334,11.198,11.618,11.549c111.708,6.235,200.548,2.157,232.176,0.233c6.54-0.399,10.437-7.506,7.093-13.081
				C1831.138,3150.019,1829.112,3147.286,1826.911,3144.586z"/>
			
				<linearGradient id="SVGID_00000165210979381801579720000008138662435700324513_" gradientUnits="userSpaceOnUse" x1="935.3896" y1="3107.3538" x2="1180.4996" y2="3107.3538" gradientTransform="matrix(1 0 0 1 646.4113 0)">
				<stop  offset="0" style="stop-color:#09005D"/>
				<stop  offset="1" style="stop-color:#1A0F91"/>
			</linearGradient>
			<path style="fill:url(#SVGID_00000165210979381801579720000008138662435700324513_);" d="M1649.595,3156.99
				c59.118-2.602,134.108-8.668,177.315-12.404c-42.48-52.119-177.315-87.248-177.315-87.248h-38.082
				c-26.192,37.755-29.985,73.701-29.698,93.018C1593.598,3155.074,1614.057,3158.554,1649.595,3156.99z"/>
			
				<linearGradient id="SVGID_00000136398294545849146580000007938253531404116635_" gradientUnits="userSpaceOnUse" x1="958.6895" y1="3038.3406" x2="1029.7343" y2="3038.3406" gradientTransform="matrix(1 0 0 1 646.4113 0)">
				<stop  offset="0" style="stop-color:#FEBBBA"/>
				<stop  offset="1" style="stop-color:#FF928E"/>
			</linearGradient>
			<path style="fill:url(#SVGID_00000136398294545849146580000007938253531404116635_);" d="M1605.101,2995.168l3.564,70.521
				c0.386,7.636,6.102,14.054,13.75,15.147c7.609,1.088,17.801,1.228,28.607-2.37c6.648-2.213,11.584-7.814,12.81-14.647
				l12.314-68.65H1605.101z"/>
			<g>
				
					<linearGradient id="SVGID_00000031165149342568254440000014319477570996386944_" gradientUnits="userSpaceOnUse" x1="485.2288" y1="3219.3271" x2="581.8826" y2="3219.3271" gradientTransform="matrix(1 0 0 1 646.4113 0)">
					<stop  offset="0" style="stop-color:#4F52FF"/>
					<stop  offset="1" style="stop-color:#4042E2"/>
				</linearGradient>
				<path style="fill:url(#SVGID_00000031165149342568254440000014319477570996386944_);" d="M1163.114,3225.938
					c-18.738-3.378-27.216-15.958-30.771-29.407c-0.024,0.122-0.047,0.242-0.07,0.362c-2.757,14.187,3.634,28.89,16.41,35.883
					c15.443,8.452,32.328,9.892,45.436,9.193c14.064-0.749,26.973-8.27,34.068-20.308l0.106-0.181
					C1214.177,3230.507,1194.362,3231.57,1163.114,3225.938z"/>
				
					<linearGradient id="SVGID_00000106850031141704327500000014995792044223697593_" gradientUnits="userSpaceOnUse" x1="485.9317" y1="3123.145" x2="627.801" y2="3123.145" gradientTransform="matrix(1 0 0 1 646.4113 0)">
					<stop  offset="0" style="stop-color:#09005D"/>
					<stop  offset="1" style="stop-color:#1A0F91"/>
				</linearGradient>
				<path style="fill:url(#SVGID_00000106850031141704327500000014995792044223697593_);" d="M1251.457,3016.897h-31.405
					c-47.837-1.264-77.876,129.136-87.709,179.634c3.555,13.449,12.032,26.029,30.771,29.407c31.248,5.633,51.064,4.57,65.18-4.458
					c25.844-43.953,38.657-108.327,44.815-145.896C1280.115,3032.856,1251.457,3016.897,1251.457,3016.897z"/>
			</g>
			
				<linearGradient id="SVGID_00000062896668576941859500000009684314879563825050_" gradientUnits="userSpaceOnUse" x1="559.6732" y1="3001.2935" x2="644.5788" y2="3001.2935" gradientTransform="matrix(1 0 0 1 646.4113 0)">
				<stop  offset="0" style="stop-color:#FEBBBA"/>
				<stop  offset="1" style="stop-color:#FF928E"/>
			</linearGradient>
			<path style="fill:url(#SVGID_00000062896668576941859500000009684314879563825050_);" d="M1224.089,2951.44l-17.439,69.36
				c-2.139,8.505,1.932,17.301,9.795,21.335c9.756,5.007,23.491,10.268,36.114,8.744c5.936-0.716,10.868-4.897,12.829-10.487
				l25.603-72.974L1224.089,2951.44z"/>
			
				<linearGradient id="SVGID_00000129897101577789287440000003633046339651111086_" gradientUnits="userSpaceOnUse" x1="1246.437" y1="2085.0566" x2="521.5377" y2="3272.5115" gradientTransform="matrix(1 0 0 1 646.4113 0)">
				<stop  offset="0" style="stop-color:#4F52FF"/>
				<stop  offset="1" style="stop-color:#4042E2"/>
			</linearGradient>
			<path style="fill:url(#SVGID_00000129897101577789287440000003633046339651111086_);" d="M1837.549,2037.927
				c0,0-155.843,974.149-153.276,979.503c0,0-43.042,19.563-89.966,2.493c0,0,14.093-520.752,47.114-720.421
				c0,0-265.97,465.45-350.432,697.375c0,0-44.052-5.253-80.517-29.252c0,0,286.376-837.789,362.778-949.378L1837.549,2037.927z"/>
			
				<linearGradient id="SVGID_00000009547745415836967110000007851358247713598380_" gradientUnits="userSpaceOnUse" x1="1811.8075" y1="1034.743" x2="1761.5416" y2="1567.5618">
				<stop  offset="0" style="stop-color:#4F52FF"/>
				<stop  offset="1" style="stop-color:#4042E2"/>
			</linearGradient>
			<path style="fill:url(#SVGID_00000009547745415836967110000007851358247713598380_);" d="M1647.645,2293.713
				c-0.704,0-1.417-0.19-2.058-0.592c-1.817-1.138-2.369-3.535-1.231-5.352l58.238-93.022c0.567-0.906,1.479-1.536,2.526-1.749
				l42.86-8.626c2.096-0.436,4.15,0.941,4.575,3.042c0.423,2.101-0.939,4.15-3.042,4.575l-41.221,8.296l-57.35,91.604
				C1650.203,2293.068,1648.938,2293.713,1647.645,2293.713z"/>
			
				<linearGradient id="SVGID_00000166654978730444249080000009670696990921929102_" gradientUnits="userSpaceOnUse" x1="1708.4897" y1="1515.9335" x2="1371.7072" y2="2285.0051">
				<stop  offset="0" style="stop-color:#FE7062"/>
				<stop  offset="1" style="stop-color:#FF928E"/>
			</linearGradient>
			<path style="fill:url(#SVGID_00000166654978730444249080000009670696990921929102_);" d="M1894.764,1364.171
				c-10.528-3.648-21.51-5.785-32.645-6.438c-60.802-3.565-261.163-10.07-426.956,44.705
				c-34.892,11.527-63.153,37.322-77.718,70.745c-44.849,102.922-117.459,337.313,84.114,455.646
				c15.487-38.449,33.362-69.355,48.647-92.062c-32.462-54.754-42.076-129.539,15.529-226.924
				c42.003,113.419,61.709,278.911,65.827,352.149c1.356,24.113-2.875,48.181-12.335,70.443l-1.032,2.428
				c-2.025,4.764,0.761,10.239,5.855,11.383c113.478,25.49,231.504,18.564,266.765,15.652c6.295-0.52,11.525-5.024,12.969-11.108
				c55.18-232.51,55.307-391.114,41.797-491.375C1937.197,1570.956,2008.978,1403.748,1894.764,1364.171z"/>
			
				<linearGradient id="SVGID_00000078729541822433662070000011243733216730661798_" gradientUnits="userSpaceOnUse" x1="977.9641" y1="1495.6006" x2="1014.7529" y2="1302.4594" gradientTransform="matrix(1 0 0 1 646.4113 0)">
				<stop  offset="0" style="stop-color:#FEBBBA"/>
				<stop  offset="1" style="stop-color:#FF928E"/>
			</linearGradient>
			<path style="fill:url(#SVGID_00000078729541822433662070000011243733216730661798_);" d="M1605.759,1222.287
				c0,0-11.48,121.379-21.588,157.283c-1.534,5.447,0.833,11.191,5.781,14.019c17.155,9.802,58.3,25.79,114.58-1.792
				c9.117-4.468,14.599-13.972,14.174-24.031l-4.958-117.292L1605.759,1222.287z"/>
			<g>
				
					<linearGradient id="SVGID_00000079467947789461635210000012430296457225128577_" gradientUnits="userSpaceOnUse" x1="1077.5094" y1="1141.2478" x2="867.6068" y2="1301.8553" gradientTransform="matrix(1 0 0 1 646.4113 0)">
					<stop  offset="0" style="stop-color:#FEBBBA"/>
					<stop  offset="1" style="stop-color:#FF928E"/>
				</linearGradient>
				<path style="fill:url(#SVGID_00000079467947789461635210000012430296457225128577_);" d="M1716.224,1067.005
					c0,0,36.718,84.346,39.183,128.617c2.466,44.271,12.005,72.997-39.183,81.912c-51.189,8.915-94.311-16.585-117.672-60.684
					c0,0-36.603-67.951-28.392-95.779C1578.371,1093.242,1716.224,1067.005,1716.224,1067.005z"/>
				
					<linearGradient id="SVGID_00000101797335007229077590000001622373812193914293_" gradientUnits="userSpaceOnUse" x1="929.7471" y1="1014.0815" x2="1125.2385" y2="1265.7762" gradientTransform="matrix(1 0 0 1 646.4113 0)">
					<stop  offset="0" style="stop-color:#09005D"/>
					<stop  offset="1" style="stop-color:#1A0F91"/>
				</linearGradient>
				<path style="fill:url(#SVGID_00000101797335007229077590000001622373812193914293_);" d="M1616.044,1185.143l2.914-1.284
					c3.71-1.636,5.297-6.051,3.433-9.652c-7.218-13.947-21.29-45.906-3.112-53.362c23.428-9.609,116.229-28.533,136.251-61.461
					c19.244-31.648,2.193-72.499-23.431-84.118c-1.715-0.778-3.737-0.16-4.616,1.504l-2.135,4.041
					c-1.462,2.766-5.547,2.346-6.417-0.658v-0.001c-0.835-2.885-4.672-3.444-6.263-0.897c-6.155,9.852-22.771,25.823-67.205,34.024
					c-63.15,11.654-104.901,37.21-105.941,80.847c-0.066,2.772-3.015,4.314-5.383,2.871c-4.663-2.841-12.124-4.175-22.096,4.21
					c-17.343,14.583-10.246,52.411,27.773,83.528c1.806,1.479,1.791,4.298-0.165,5.571c-6.892,4.486-17.167,15.163,9.456,29.394
					c27.538,14.72,48.101,13.513,56.019,12.206c1.97-0.326,3.24-2.233,2.81-4.182l-8.451-38.354
					c-0.478-2.171,1.174-4.227,3.397-4.227H1616.044z"/>
				
					<linearGradient id="SVGID_00000154405717173434306210000012944399592879062661_" gradientUnits="userSpaceOnUse" x1="1051.4741" y1="1107.2202" x2="841.5706" y2="1267.8284" gradientTransform="matrix(1 0 0 1 646.4113 0)">
					<stop  offset="0" style="stop-color:#FEBBBA"/>
					<stop  offset="1" style="stop-color:#FF928E"/>
				</linearGradient>
				<path style="fill:url(#SVGID_00000154405717173434306210000012944399592879062661_);" d="M1617.634,1193.236
					c0,0-14.007-53.879-38.164-38.772c-24.156,15.106,12.535,60.369,31.956,62.385L1617.634,1193.236z"/>
			</g>
			
				<linearGradient id="SVGID_00000031201126556042483200000017723133011664925362_" gradientUnits="userSpaceOnUse" x1="1211.6394" y1="1191.8198" x2="1437.8362" y2="478.0439" gradientTransform="matrix(1 0 0 1 646.4113 0)">
				<stop  offset="0" style="stop-color:#FEBBBA"/>
				<stop  offset="1" style="stop-color:#FF928E"/>
			</linearGradient>
			<path style="fill:url(#SVGID_00000031201126556042483200000017723133011664925362_);" d="M1616.6,2011.724l165.696-3.607
				c0,0-144.49-40.843-153.456-29.719c0,0-89.555-58.85-138.633-141.631c-15.285,22.707-33.159,53.613-48.647,92.062
				C1485.557,1954.658,1543.338,1999.528,1616.6,2011.724z"/>
			
				<linearGradient id="SVGID_00000017508345862292563270000001164365913542651285_" gradientUnits="userSpaceOnUse" x1="-540.2106" y1="-10631.9619" x2="-314.0135" y2="-11345.7383" gradientTransform="matrix(-1 0 0 1 -2825.4714 0)">
				<stop  offset="0" style="stop-color:#FEBBBA"/>
				<stop  offset="1" style="stop-color:#FF928E"/>
			</linearGradient>
			<path style="fill:url(#SVGID_00000017508345862292563270000001164365913542651285_);" d="M1611.928,1983.032
				c0,0-3.417,66.02,83.244,56.432c47.097-5.21,123.134-49.123,123.134-49.123S1620.12,1989.814,1611.928,1983.032z"/>
			<g>
				
					<linearGradient id="SVGID_00000029754932798303202680000003236975452984117139_" gradientUnits="userSpaceOnUse" x1="1193.8135" y1="2025.7871" x2="920.1326" y2="2100.7959" gradientTransform="matrix(-0.9988 -0.0494 -0.0494 0.9988 2888.5449 -55.0328)">
					<stop  offset="0" style="stop-color:#09005D"/>
					<stop  offset="1" style="stop-color:#1A0F91"/>
				</linearGradient>
				<path style="fill:url(#SVGID_00000029754932798303202680000003236975452984117139_);" d="M1653.706,1999.44
					c0.26,0.013,0.52,0.02,0.781,0.018l339.708-0.367c8.398-0.007,15.198-6.75,15.189-15.059
					c-0.008-8.312-6.848-15.178-15.223-15.029l-339.708,0.367c-8.398,0.007-15.198,6.75-15.189,15.059
					C1639.273,1992.479,1645.672,1999.047,1653.706,1999.44z"/>
				
					<linearGradient id="SVGID_00000012473469922508143910000016255507838607218581_" gradientUnits="userSpaceOnUse" x1="879.849" y1="1734.7089" x2="686.8017" y2="1938.7479" gradientTransform="matrix(-1 0 0 1 2847.0757 0)">
					<stop  offset="0" style="stop-color:#09005D"/>
					<stop  offset="1" style="stop-color:#1A0F91"/>
				</linearGradient>
				<path style="fill:url(#SVGID_00000012473469922508143910000016255507838607218581_);" d="M2299.577,1694.264h-282.911
					c-20.87,0-39.866,11.917-48.768,30.594l-130.789,274.403h351.582c13.449,0,25.534-8.131,30.477-20.507l101.422-253.918
					C2326.449,1710.164,2315.521,1694.264,2299.577,1694.264z"/>
				
					<linearGradient id="SVGID_00000017487696916894102010000010822157961293333396_" gradientUnits="userSpaceOnUse" x1="762.7894" y1="1785.7064" x2="675.526" y2="1917.1151" gradientTransform="matrix(-1 0 0 1 2847.0757 0)">
					<stop  offset="0" style="stop-color:#53D8FF"/>
					<stop  offset="1" style="stop-color:#3840F7"/>
				</linearGradient>
				<path style="fill:url(#SVGID_00000017487696916894102010000010822157961293333396_);" d="M2100.263,1834.959
					c-6.131,18.846-1.602,37.149,10.116,40.881c11.718,3.731,26.187-8.521,32.318-27.367c6.131-18.846,1.602-37.149-10.116-40.88
					C2120.863,1803.86,2106.394,1816.112,2100.263,1834.959z"/>
			</g>
			<g>
				
					<linearGradient id="SVGID_00000120542792754279001610000010386033948330891940_" gradientUnits="userSpaceOnUse" x1="1977.9874" y1="1633.9485" x2="1641.2059" y2="2403.0176">
					<stop  offset="0" style="stop-color:#FE7062"/>
					<stop  offset="1" style="stop-color:#FF928E"/>
				</linearGradient>
				<path style="fill:url(#SVGID_00000120542792754279001610000010386033948330891940_);" d="M2238.98,1550.495
					c-131.914,5.474-195.28-91.02-252.966-147.508c-76.163-74.578-156.787-44.193-156.787-44.193l61.282,200.022
					c119.082,139.291,267.207,105.171,357.266,73.91C2252.624,1600.146,2246.833,1571.817,2238.98,1550.495z"/>
				
					<linearGradient id="SVGID_00000163769347952407356170000007925209510804730530_" gradientUnits="userSpaceOnUse" x1="7915.9521" y1="-2555.7681" x2="8217.5508" y2="-2691.4873" gradientTransform="matrix(0.9942 0.1073 -0.1073 0.9942 3123.9341 339.0102)">
					<stop  offset="0" style="stop-color:#FEBBBA"/>
					<stop  offset="1" style="stop-color:#FF928E"/>
				</linearGradient>
				<path style="fill:url(#SVGID_00000163769347952407356170000007925209510804730530_);" d="M2429.785,1492.732l-45.548,18.521
					c-55.018,25.864-103.009,37.49-145.257,39.242c7.854,21.321,13.644,49.65,8.795,82.231
					c57.328-19.898,94.865-47.156,94.865-47.156C2446.433,1537.94,2429.785,1492.732,2429.785,1492.732z"/>
			</g>
			
				<linearGradient id="SVGID_00000011006558531559890470000004920964454841831818_" gradientUnits="userSpaceOnUse" x1="7923.5498" y1="-2539.9763" x2="8225.1621" y2="-2675.7014" gradientTransform="matrix(0.9942 0.1073 -0.1073 0.9942 3123.9341 339.0102)">
				<stop  offset="0" style="stop-color:#FEBBBA"/>
				<stop  offset="1" style="stop-color:#FF928E"/>
			</linearGradient>
			<path style="fill:url(#SVGID_00000011006558531559890470000004920964454841831818_);" d="M2550.06,1567.075
				c-1.783-9.539-7.807-17.749-16.371-22.315l-83.575-44.558c0,0-0.11-11.348,20.489-16.828c20.601-5.48,18.365-28.13,18.365-28.13
				s-28.35,9.411-70.018,24.693c-23.828,8.739-38.651,27.111-46.986,41.243l19.3,32.003
				c52.102,21.985,106.253,30.956,161.896,30.467L2550.06,1567.075z"/>
			
				<linearGradient id="SVGID_00000159431881818016752630000000063096546319121541_" gradientUnits="userSpaceOnUse" x1="1845.5226" y1="1489.6166" x2="1885.8088" y2="1489.6166">
				<stop  offset="0" style="stop-color:#E1473D"/>
				<stop  offset="1" style="stop-color:#E9605A"/>
			</linearGradient>
			<path style="fill:url(#SVGID_00000159431881818016752630000000063096546319121541_);" d="M1845.523,1418.17
				c0,0,27.003,42.545,40.286,142.894L1845.523,1418.17z"/>
		</g>
	</g>
</g>
</svg>
